<mxfile host="app.diagrams.net" modified="2024-05-24T17:32:24.788Z" agent="Mozilla/5.0 (X11; Linux x86_64; rv:109.0) Gecko/20100101 Firefox/114.0" etag="8Oqy1rwAoReX-UbfEhte" version="24.4.8" type="device">
  <diagram name="Página-1" id="CBR-pMvpNvf4DPiNlyrw">
    <mxGraphModel dx="717" dy="395" grid="1" gridSize="10" guides="1" tooltips="1" connect="1" arrows="0" fold="1" page="1" pageScale="1" pageWidth="827" pageHeight="1169" background="#FFF4C3" math="0" shadow="0">
      <root>
        <mxCell id="0" />
        <mxCell id="1" parent="0" />
        <mxCell id="OzoSG0Pu-Z7uOkjksjxz-1" value="Usuario : Persona" style="rounded=0;whiteSpace=wrap;html=1;" parent="1" vertex="1">
          <mxGeometry x="120" y="40" width="120" height="40" as="geometry" />
        </mxCell>
        <mxCell id="rv39Xl9mDFOOKLUzPVVk-14" style="edgeStyle=orthogonalEdgeStyle;rounded=0;orthogonalLoop=1;jettySize=auto;html=1;exitX=0.5;exitY=1;exitDx=0;exitDy=0;dashed=1;" parent="1" source="OzoSG0Pu-Z7uOkjksjxz-2" target="rv39Xl9mDFOOKLUzPVVk-10" edge="1">
          <mxGeometry relative="1" as="geometry" />
        </mxCell>
        <mxCell id="OzoSG0Pu-Z7uOkjksjxz-2" value="Base de datos" style="rounded=0;whiteSpace=wrap;html=1;" parent="1" vertex="1">
          <mxGeometry x="440" y="40" width="120" height="40" as="geometry" />
        </mxCell>
        <mxCell id="u1SRZ4_7880dq6Q7Chlh-37" style="edgeStyle=orthogonalEdgeStyle;rounded=0;orthogonalLoop=1;jettySize=auto;html=1;exitX=0.5;exitY=1;exitDx=0;exitDy=0;entryX=0.5;entryY=0;entryDx=0;entryDy=0;dashed=1;" parent="1" source="rv39Xl9mDFOOKLUzPVVk-10" target="u1SRZ4_7880dq6Q7Chlh-36" edge="1">
          <mxGeometry relative="1" as="geometry" />
        </mxCell>
        <mxCell id="rv39Xl9mDFOOKLUzPVVk-10" value="" style="rounded=0;whiteSpace=wrap;html=1;" parent="1" vertex="1">
          <mxGeometry x="490" y="300" width="20" height="60" as="geometry" />
        </mxCell>
        <mxCell id="rv39Xl9mDFOOKLUzPVVk-19" style="edgeStyle=orthogonalEdgeStyle;rounded=0;orthogonalLoop=1;jettySize=auto;html=1;exitX=0.5;exitY=1;exitDx=0;exitDy=0;entryX=0.5;entryY=0;entryDx=0;entryDy=0;dashed=1;" parent="1" source="OzoSG0Pu-Z7uOkjksjxz-1" target="rv39Xl9mDFOOKLUzPVVk-21" edge="1">
          <mxGeometry relative="1" as="geometry" />
        </mxCell>
        <mxCell id="u1SRZ4_7880dq6Q7Chlh-39" style="edgeStyle=orthogonalEdgeStyle;rounded=0;orthogonalLoop=1;jettySize=auto;html=1;exitX=0.5;exitY=1;exitDx=0;exitDy=0;entryX=0.5;entryY=0;entryDx=0;entryDy=0;dashed=1;" parent="1" source="rv39Xl9mDFOOKLUzPVVk-21" target="u1SRZ4_7880dq6Q7Chlh-38" edge="1">
          <mxGeometry relative="1" as="geometry" />
        </mxCell>
        <mxCell id="rv39Xl9mDFOOKLUzPVVk-21" value="" style="rounded=0;whiteSpace=wrap;html=1;" parent="1" vertex="1">
          <mxGeometry x="170" y="120" width="20" height="130" as="geometry" />
        </mxCell>
        <mxCell id="rv39Xl9mDFOOKLUzPVVk-23" value="&lt;font style=&quot;font-size: 8px;&quot;&gt;Introducir nombre&lt;/font&gt;( )" style="text;html=1;align=center;verticalAlign=middle;resizable=0;points=[];autosize=1;strokeColor=none;fillColor=none;" parent="1" vertex="1">
          <mxGeometry x="205" y="110" width="100" height="30" as="geometry" />
        </mxCell>
        <mxCell id="u1SRZ4_7880dq6Q7Chlh-1" value="Sitio web" style="rounded=0;whiteSpace=wrap;html=1;" parent="1" vertex="1">
          <mxGeometry x="280" y="40" width="120" height="40" as="geometry" />
        </mxCell>
        <mxCell id="u1SRZ4_7880dq6Q7Chlh-2" style="edgeStyle=orthogonalEdgeStyle;rounded=0;orthogonalLoop=1;jettySize=auto;html=1;exitX=0.5;exitY=1;exitDx=0;exitDy=0;entryX=0.5;entryY=0;entryDx=0;entryDy=0;dashed=1;" parent="1" target="u1SRZ4_7880dq6Q7Chlh-3" edge="1">
          <mxGeometry relative="1" as="geometry">
            <mxPoint x="340" y="80" as="sourcePoint" />
          </mxGeometry>
        </mxCell>
        <mxCell id="u1SRZ4_7880dq6Q7Chlh-9" style="edgeStyle=orthogonalEdgeStyle;rounded=0;orthogonalLoop=1;jettySize=auto;html=1;exitX=0;exitY=0.75;exitDx=0;exitDy=0;entryX=1;entryY=0.5;entryDx=0;entryDy=0;dashed=1;" parent="1" edge="1">
          <mxGeometry relative="1" as="geometry">
            <mxPoint x="330" y="244.5" as="sourcePoint" />
            <mxPoint x="190" y="244.5" as="targetPoint" />
          </mxGeometry>
        </mxCell>
        <mxCell id="u1SRZ4_7880dq6Q7Chlh-56" style="edgeStyle=orthogonalEdgeStyle;rounded=0;orthogonalLoop=1;jettySize=auto;html=1;exitX=0.5;exitY=1;exitDx=0;exitDy=0;dashed=1;" parent="1" source="u1SRZ4_7880dq6Q7Chlh-3" target="u1SRZ4_7880dq6Q7Chlh-27" edge="1">
          <mxGeometry relative="1" as="geometry" />
        </mxCell>
        <mxCell id="u1SRZ4_7880dq6Q7Chlh-3" value="" style="rounded=0;whiteSpace=wrap;html=1;" parent="1" vertex="1">
          <mxGeometry x="330" y="120" width="20" height="210" as="geometry" />
        </mxCell>
        <mxCell id="u1SRZ4_7880dq6Q7Chlh-4" style="edgeStyle=orthogonalEdgeStyle;rounded=0;orthogonalLoop=1;jettySize=auto;html=1;exitX=1;exitY=0.25;exitDx=0;exitDy=0;entryX=0;entryY=0.25;entryDx=0;entryDy=0;startArrow=none;startFill=0;" parent="1" edge="1">
          <mxGeometry relative="1" as="geometry">
            <mxPoint x="190" y="130" as="sourcePoint" />
            <mxPoint x="330" y="130" as="targetPoint" />
          </mxGeometry>
        </mxCell>
        <mxCell id="u1SRZ4_7880dq6Q7Chlh-6" style="edgeStyle=orthogonalEdgeStyle;rounded=0;orthogonalLoop=1;jettySize=auto;html=1;exitX=1;exitY=0.25;exitDx=0;exitDy=0;entryX=1;entryY=0.5;entryDx=0;entryDy=0;" parent="1" source="u1SRZ4_7880dq6Q7Chlh-3" target="u1SRZ4_7880dq6Q7Chlh-3" edge="1">
          <mxGeometry relative="1" as="geometry" />
        </mxCell>
        <mxCell id="u1SRZ4_7880dq6Q7Chlh-8" value="&lt;div style=&quot;font-size: 8px;&quot;&gt;&lt;font style=&quot;font-size: 8px;&quot;&gt;Comprobar&lt;/font&gt;&lt;/div&gt;&lt;div style=&quot;font-size: 8px;&quot;&gt;&lt;font style=&quot;font-size: 8px;&quot;&gt;&amp;nbsp;validez ( )&lt;font style=&quot;font-size: 8px;&quot;&gt;&lt;br&gt;&lt;/font&gt;&lt;/font&gt;&lt;/div&gt;" style="text;html=1;align=center;verticalAlign=middle;resizable=0;points=[];autosize=1;strokeColor=none;fillColor=none;" parent="1" vertex="1">
          <mxGeometry x="370" y="190" width="60" height="30" as="geometry" />
        </mxCell>
        <mxCell id="u1SRZ4_7880dq6Q7Chlh-10" value="&lt;div style=&quot;font-size: 8px;&quot;&gt;&lt;font style=&quot;font-size: 8px;&quot;&gt;Informe&lt;/font&gt;&lt;/div&gt;&lt;div style=&quot;font-size: 8px;&quot;&gt;&lt;font style=&quot;font-size: 8px;&quot;&gt;&amp;nbsp;de&lt;/font&gt;&lt;/div&gt;&lt;div style=&quot;font-size: 8px;&quot;&gt;&lt;font style=&quot;font-size: 8px;&quot;&gt;Error&lt;font style=&quot;font-size: 8px;&quot;&gt; ( )&lt;br&gt;&lt;/font&gt;&lt;/font&gt; &lt;/div&gt;" style="text;html=1;align=center;verticalAlign=middle;resizable=0;points=[];autosize=1;strokeColor=none;fillColor=none;" parent="1" vertex="1">
          <mxGeometry x="240" y="204.5" width="50" height="40" as="geometry" />
        </mxCell>
        <mxCell id="u1SRZ4_7880dq6Q7Chlh-11" style="edgeStyle=orthogonalEdgeStyle;rounded=0;orthogonalLoop=1;jettySize=auto;html=1;exitX=1;exitY=0.25;exitDx=0;exitDy=0;entryX=0;entryY=0.25;entryDx=0;entryDy=0;startArrow=none;startFill=0;" parent="1" edge="1">
          <mxGeometry relative="1" as="geometry">
            <mxPoint x="350" y="320" as="sourcePoint" />
            <mxPoint x="490" y="320" as="targetPoint" />
          </mxGeometry>
        </mxCell>
        <mxCell id="rv39Xl9mDFOOKLUzPVVk-18" value="&lt;div&gt;Loop:&lt;/div&gt;&lt;div&gt;Nombre incorrecto&lt;br&gt;&lt;/div&gt;" style="shape=umlFrame;whiteSpace=wrap;html=1;pointerEvents=0;width=65;height=60;" parent="1" vertex="1">
          <mxGeometry x="100" y="100" width="330" height="160" as="geometry" />
        </mxCell>
        <mxCell id="u1SRZ4_7880dq6Q7Chlh-12" value="&lt;div style=&quot;font-size: 8px;&quot;&gt;&lt;font style=&quot;font-size: 8px;&quot;&gt;Nombre&lt;/font&gt;&lt;/div&gt;&lt;div style=&quot;font-size: 8px;&quot;&gt;&lt;font style=&quot;font-size: 8px;&quot;&gt;valido( )&lt;br&gt;&lt;/font&gt;&lt;/div&gt;" style="text;html=1;align=center;verticalAlign=middle;resizable=0;points=[];autosize=1;strokeColor=none;fillColor=none;" parent="1" vertex="1">
          <mxGeometry x="370" y="290" width="50" height="30" as="geometry" />
        </mxCell>
        <mxCell id="u1SRZ4_7880dq6Q7Chlh-13" value="&lt;div&gt;Nombre correcto&lt;br&gt;&lt;/div&gt;" style="shape=umlFrame;whiteSpace=wrap;html=1;pointerEvents=0;width=60;height=40;" parent="1" vertex="1">
          <mxGeometry x="100" y="260" width="330" height="80" as="geometry" />
        </mxCell>
        <mxCell id="u1SRZ4_7880dq6Q7Chlh-14" value="" style="shape=umlDestroy;whiteSpace=wrap;html=1;strokeWidth=3;targetShapes=umlLifeline;" parent="1" vertex="1">
          <mxGeometry x="170" y="1400" width="20" height="20" as="geometry" />
        </mxCell>
        <mxCell id="u1SRZ4_7880dq6Q7Chlh-25" value="&lt;font style=&quot;font-size: 8px;&quot;&gt;Introducir contraseña( )&lt;br&gt;&lt;/font&gt;" style="text;html=1;align=center;verticalAlign=middle;resizable=0;points=[];autosize=1;strokeColor=none;fillColor=none;" parent="1" vertex="1">
          <mxGeometry x="200" y="380" width="110" height="30" as="geometry" />
        </mxCell>
        <mxCell id="u1SRZ4_7880dq6Q7Chlh-26" style="edgeStyle=orthogonalEdgeStyle;rounded=0;orthogonalLoop=1;jettySize=auto;html=1;exitX=0;exitY=0.75;exitDx=0;exitDy=0;entryX=1;entryY=0.5;entryDx=0;entryDy=0;dashed=1;" parent="1" edge="1">
          <mxGeometry relative="1" as="geometry">
            <mxPoint x="330" y="514.5" as="sourcePoint" />
            <mxPoint x="190" y="514.5" as="targetPoint" />
          </mxGeometry>
        </mxCell>
        <mxCell id="u1SRZ4_7880dq6Q7Chlh-57" style="edgeStyle=orthogonalEdgeStyle;rounded=0;orthogonalLoop=1;jettySize=auto;html=1;exitX=0.5;exitY=1;exitDx=0;exitDy=0;dashed=1;" parent="1" source="u1SRZ4_7880dq6Q7Chlh-27" target="u1SRZ4_7880dq6Q7Chlh-43" edge="1">
          <mxGeometry relative="1" as="geometry" />
        </mxCell>
        <mxCell id="u1SRZ4_7880dq6Q7Chlh-27" value="" style="rounded=0;whiteSpace=wrap;html=1;" parent="1" vertex="1">
          <mxGeometry x="330" y="390" width="20" height="210" as="geometry" />
        </mxCell>
        <mxCell id="u1SRZ4_7880dq6Q7Chlh-28" style="edgeStyle=orthogonalEdgeStyle;rounded=0;orthogonalLoop=1;jettySize=auto;html=1;exitX=1;exitY=0.25;exitDx=0;exitDy=0;entryX=0;entryY=0.25;entryDx=0;entryDy=0;startArrow=none;startFill=0;" parent="1" edge="1">
          <mxGeometry relative="1" as="geometry">
            <mxPoint x="190" y="400" as="sourcePoint" />
            <mxPoint x="330" y="400" as="targetPoint" />
          </mxGeometry>
        </mxCell>
        <mxCell id="u1SRZ4_7880dq6Q7Chlh-29" style="edgeStyle=orthogonalEdgeStyle;rounded=0;orthogonalLoop=1;jettySize=auto;html=1;exitX=1;exitY=0.25;exitDx=0;exitDy=0;entryX=1;entryY=0.5;entryDx=0;entryDy=0;" parent="1" source="u1SRZ4_7880dq6Q7Chlh-27" target="u1SRZ4_7880dq6Q7Chlh-27" edge="1">
          <mxGeometry relative="1" as="geometry" />
        </mxCell>
        <mxCell id="u1SRZ4_7880dq6Q7Chlh-30" value="&lt;div style=&quot;font-size: 8px;&quot;&gt;&lt;font style=&quot;font-size: 8px;&quot;&gt;Comprobar&lt;/font&gt;&lt;/div&gt;&lt;div style=&quot;font-size: 8px;&quot;&gt;&lt;font style=&quot;font-size: 8px;&quot;&gt;&amp;nbsp;validez ( )&lt;font style=&quot;font-size: 8px;&quot;&gt;&lt;br&gt;&lt;/font&gt;&lt;/font&gt;&lt;/div&gt;" style="text;html=1;align=center;verticalAlign=middle;resizable=0;points=[];autosize=1;strokeColor=none;fillColor=none;" parent="1" vertex="1">
          <mxGeometry x="370" y="460" width="60" height="30" as="geometry" />
        </mxCell>
        <mxCell id="u1SRZ4_7880dq6Q7Chlh-31" value="&lt;div style=&quot;font-size: 8px;&quot;&gt;&lt;font style=&quot;font-size: 8px;&quot;&gt;Informe&lt;/font&gt;&lt;/div&gt;&lt;div style=&quot;font-size: 8px;&quot;&gt;&lt;font style=&quot;font-size: 8px;&quot;&gt;&amp;nbsp;de&lt;/font&gt;&lt;/div&gt;&lt;div style=&quot;font-size: 8px;&quot;&gt;&lt;font style=&quot;font-size: 8px;&quot;&gt;Error&lt;font style=&quot;font-size: 8px;&quot;&gt; ( )&lt;br&gt;&lt;/font&gt;&lt;/font&gt; &lt;/div&gt;" style="text;html=1;align=center;verticalAlign=middle;resizable=0;points=[];autosize=1;strokeColor=none;fillColor=none;" parent="1" vertex="1">
          <mxGeometry x="240" y="474.5" width="50" height="40" as="geometry" />
        </mxCell>
        <mxCell id="u1SRZ4_7880dq6Q7Chlh-32" value="&lt;div&gt;Loop:&lt;/div&gt;&lt;div&gt;Contraseña&lt;/div&gt;&lt;div&gt;incorrecta&lt;br&gt;&lt;/div&gt;" style="shape=umlFrame;whiteSpace=wrap;html=1;pointerEvents=0;width=65;height=60;" parent="1" vertex="1">
          <mxGeometry x="100" y="370" width="330" height="160" as="geometry" />
        </mxCell>
        <mxCell id="u1SRZ4_7880dq6Q7Chlh-33" value="&lt;font style=&quot;font-size: 8px;&quot;&gt;Contraseña&lt;/font&gt;&lt;div style=&quot;font-size: 8px;&quot;&gt;&lt;font style=&quot;font-size: 8px;&quot;&gt;valida&lt;/font&gt;( )&lt;/div&gt;" style="text;html=1;align=center;verticalAlign=middle;resizable=0;points=[];autosize=1;strokeColor=none;fillColor=none;" parent="1" vertex="1">
          <mxGeometry x="365" y="555" width="60" height="40" as="geometry" />
        </mxCell>
        <mxCell id="u1SRZ4_7880dq6Q7Chlh-34" value="Contraseña correcta" style="shape=umlFrame;whiteSpace=wrap;html=1;pointerEvents=0;width=60;height=40;" parent="1" vertex="1">
          <mxGeometry x="100" y="530" width="330" height="80" as="geometry" />
        </mxCell>
        <mxCell id="u1SRZ4_7880dq6Q7Chlh-35" style="edgeStyle=orthogonalEdgeStyle;rounded=0;orthogonalLoop=1;jettySize=auto;html=1;exitX=1;exitY=0.25;exitDx=0;exitDy=0;entryX=0;entryY=0.25;entryDx=0;entryDy=0;startArrow=none;startFill=0;" parent="1" edge="1">
          <mxGeometry relative="1" as="geometry">
            <mxPoint x="350" y="590" as="sourcePoint" />
            <mxPoint x="490" y="590" as="targetPoint" />
          </mxGeometry>
        </mxCell>
        <mxCell id="u1SRZ4_7880dq6Q7Chlh-55" style="edgeStyle=orthogonalEdgeStyle;rounded=0;orthogonalLoop=1;jettySize=auto;html=1;exitX=0.5;exitY=1;exitDx=0;exitDy=0;dashed=1;" parent="1" source="u1SRZ4_7880dq6Q7Chlh-36" target="u1SRZ4_7880dq6Q7Chlh-54" edge="1">
          <mxGeometry relative="1" as="geometry" />
        </mxCell>
        <mxCell id="u1SRZ4_7880dq6Q7Chlh-36" value="" style="rounded=0;whiteSpace=wrap;html=1;" parent="1" vertex="1">
          <mxGeometry x="490" y="560" width="20" height="60" as="geometry" />
        </mxCell>
        <mxCell id="u1SRZ4_7880dq6Q7Chlh-52" style="edgeStyle=orthogonalEdgeStyle;rounded=0;orthogonalLoop=1;jettySize=auto;html=1;exitX=0.5;exitY=1;exitDx=0;exitDy=0;entryX=0.5;entryY=0;entryDx=0;entryDy=0;dashed=1;" parent="1" source="u1SRZ4_7880dq6Q7Chlh-38" target="u1SRZ4_7880dq6Q7Chlh-51" edge="1">
          <mxGeometry relative="1" as="geometry" />
        </mxCell>
        <mxCell id="u1SRZ4_7880dq6Q7Chlh-38" value="" style="rounded=0;whiteSpace=wrap;html=1;" parent="1" vertex="1">
          <mxGeometry x="170" y="390" width="20" height="130" as="geometry" />
        </mxCell>
        <mxCell id="u1SRZ4_7880dq6Q7Chlh-41" value="&lt;font style=&quot;font-size: 8px;&quot;&gt;Repetir contraseña( )&lt;br&gt;&lt;/font&gt;" style="text;html=1;align=center;verticalAlign=middle;resizable=0;points=[];autosize=1;strokeColor=none;fillColor=none;" parent="1" vertex="1">
          <mxGeometry x="205" y="650" width="100" height="30" as="geometry" />
        </mxCell>
        <mxCell id="u1SRZ4_7880dq6Q7Chlh-42" style="edgeStyle=orthogonalEdgeStyle;rounded=0;orthogonalLoop=1;jettySize=auto;html=1;exitX=0;exitY=0.75;exitDx=0;exitDy=0;entryX=1;entryY=0.5;entryDx=0;entryDy=0;dashed=1;" parent="1" edge="1">
          <mxGeometry relative="1" as="geometry">
            <mxPoint x="330" y="784.5" as="sourcePoint" />
            <mxPoint x="190" y="784.5" as="targetPoint" />
          </mxGeometry>
        </mxCell>
        <mxCell id="u1SRZ4_7880dq6Q7Chlh-73" style="edgeStyle=orthogonalEdgeStyle;rounded=0;orthogonalLoop=1;jettySize=auto;html=1;exitX=0.5;exitY=1;exitDx=0;exitDy=0;entryX=0.5;entryY=0;entryDx=0;entryDy=0;dashed=1;" parent="1" source="u1SRZ4_7880dq6Q7Chlh-43" target="u1SRZ4_7880dq6Q7Chlh-60" edge="1">
          <mxGeometry relative="1" as="geometry" />
        </mxCell>
        <mxCell id="u1SRZ4_7880dq6Q7Chlh-43" value="" style="rounded=0;whiteSpace=wrap;html=1;" parent="1" vertex="1">
          <mxGeometry x="330" y="660" width="20" height="210" as="geometry" />
        </mxCell>
        <mxCell id="u1SRZ4_7880dq6Q7Chlh-44" style="edgeStyle=orthogonalEdgeStyle;rounded=0;orthogonalLoop=1;jettySize=auto;html=1;exitX=1;exitY=0.25;exitDx=0;exitDy=0;entryX=0;entryY=0.25;entryDx=0;entryDy=0;startArrow=none;startFill=0;" parent="1" edge="1">
          <mxGeometry relative="1" as="geometry">
            <mxPoint x="190" y="670" as="sourcePoint" />
            <mxPoint x="330" y="670" as="targetPoint" />
          </mxGeometry>
        </mxCell>
        <mxCell id="u1SRZ4_7880dq6Q7Chlh-45" style="edgeStyle=orthogonalEdgeStyle;rounded=0;orthogonalLoop=1;jettySize=auto;html=1;exitX=1;exitY=0.25;exitDx=0;exitDy=0;entryX=1;entryY=0.5;entryDx=0;entryDy=0;" parent="1" source="u1SRZ4_7880dq6Q7Chlh-43" target="u1SRZ4_7880dq6Q7Chlh-43" edge="1">
          <mxGeometry relative="1" as="geometry" />
        </mxCell>
        <mxCell id="u1SRZ4_7880dq6Q7Chlh-46" value="&lt;div style=&quot;font-size: 8px;&quot;&gt;&lt;font style=&quot;font-size: 8px;&quot;&gt;Comprobar&lt;/font&gt;&lt;/div&gt;&lt;div style=&quot;font-size: 8px;&quot;&gt;&lt;font style=&quot;font-size: 8px;&quot;&gt;&amp;nbsp;validez ( )&lt;font style=&quot;font-size: 8px;&quot;&gt;&lt;br&gt;&lt;/font&gt;&lt;/font&gt;&lt;/div&gt;" style="text;html=1;align=center;verticalAlign=middle;resizable=0;points=[];autosize=1;strokeColor=none;fillColor=none;" parent="1" vertex="1">
          <mxGeometry x="370" y="730" width="60" height="30" as="geometry" />
        </mxCell>
        <mxCell id="u1SRZ4_7880dq6Q7Chlh-47" value="&lt;div style=&quot;font-size: 8px;&quot;&gt;&lt;font style=&quot;font-size: 8px;&quot;&gt;Informe&lt;/font&gt;&lt;/div&gt;&lt;div style=&quot;font-size: 8px;&quot;&gt;&lt;font style=&quot;font-size: 8px;&quot;&gt;&amp;nbsp;de&lt;/font&gt;&lt;/div&gt;&lt;div style=&quot;font-size: 8px;&quot;&gt;&lt;font style=&quot;font-size: 8px;&quot;&gt;Error&lt;font style=&quot;font-size: 8px;&quot;&gt; ( )&lt;br&gt;&lt;/font&gt;&lt;/font&gt; &lt;/div&gt;" style="text;html=1;align=center;verticalAlign=middle;resizable=0;points=[];autosize=1;strokeColor=none;fillColor=none;" parent="1" vertex="1">
          <mxGeometry x="240" y="744.5" width="50" height="40" as="geometry" />
        </mxCell>
        <mxCell id="u1SRZ4_7880dq6Q7Chlh-48" value="&lt;div&gt;Loop:&lt;/div&gt;&lt;div&gt;Contraseña&lt;/div&gt;&lt;div&gt;incorrecta&lt;br&gt;&lt;/div&gt;" style="shape=umlFrame;whiteSpace=wrap;html=1;pointerEvents=0;width=65;height=60;" parent="1" vertex="1">
          <mxGeometry x="100" y="640" width="330" height="160" as="geometry" />
        </mxCell>
        <mxCell id="u1SRZ4_7880dq6Q7Chlh-49" value="&lt;font style=&quot;font-size: 8px;&quot;&gt;Contraseña&lt;/font&gt;&lt;div style=&quot;font-size: 8px;&quot;&gt;&lt;font style=&quot;font-size: 8px;&quot;&gt;valida&lt;/font&gt;( ) &lt;br&gt;&lt;/div&gt;" style="text;html=1;align=center;verticalAlign=middle;resizable=0;points=[];autosize=1;strokeColor=none;fillColor=none;" parent="1" vertex="1">
          <mxGeometry x="365" y="825" width="60" height="40" as="geometry" />
        </mxCell>
        <mxCell id="u1SRZ4_7880dq6Q7Chlh-50" value="Contraseña correcta" style="shape=umlFrame;whiteSpace=wrap;html=1;pointerEvents=0;width=60;height=40;" parent="1" vertex="1">
          <mxGeometry x="100" y="800" width="330" height="80" as="geometry" />
        </mxCell>
        <mxCell id="u1SRZ4_7880dq6Q7Chlh-72" style="edgeStyle=orthogonalEdgeStyle;rounded=0;orthogonalLoop=1;jettySize=auto;html=1;exitX=0.5;exitY=1;exitDx=0;exitDy=0;entryX=0.5;entryY=0;entryDx=0;entryDy=0;dashed=1;" parent="1" source="u1SRZ4_7880dq6Q7Chlh-51" target="u1SRZ4_7880dq6Q7Chlh-68" edge="1">
          <mxGeometry relative="1" as="geometry" />
        </mxCell>
        <mxCell id="u1SRZ4_7880dq6Q7Chlh-51" value="" style="rounded=0;whiteSpace=wrap;html=1;" parent="1" vertex="1">
          <mxGeometry x="170" y="660" width="20" height="130" as="geometry" />
        </mxCell>
        <mxCell id="u1SRZ4_7880dq6Q7Chlh-53" style="edgeStyle=orthogonalEdgeStyle;rounded=0;orthogonalLoop=1;jettySize=auto;html=1;exitX=1;exitY=0.25;exitDx=0;exitDy=0;entryX=0;entryY=0.25;entryDx=0;entryDy=0;startArrow=none;startFill=0;" parent="1" edge="1">
          <mxGeometry relative="1" as="geometry">
            <mxPoint x="350" y="860" as="sourcePoint" />
            <mxPoint x="490" y="860" as="targetPoint" />
          </mxGeometry>
        </mxCell>
        <mxCell id="u1SRZ4_7880dq6Q7Chlh-54" value="" style="rounded=0;whiteSpace=wrap;html=1;" parent="1" vertex="1">
          <mxGeometry x="490" y="840" width="20" height="60" as="geometry" />
        </mxCell>
        <mxCell id="u1SRZ4_7880dq6Q7Chlh-58" value="&lt;font style=&quot;font-size: 8px;&quot;&gt;Introducir datos( )&lt;br&gt;&lt;/font&gt;" style="text;html=1;align=center;verticalAlign=middle;resizable=0;points=[];autosize=1;strokeColor=none;fillColor=none;" parent="1" vertex="1">
          <mxGeometry x="210" y="930" width="90" height="30" as="geometry" />
        </mxCell>
        <mxCell id="u1SRZ4_7880dq6Q7Chlh-59" style="edgeStyle=orthogonalEdgeStyle;rounded=0;orthogonalLoop=1;jettySize=auto;html=1;exitX=0;exitY=0.75;exitDx=0;exitDy=0;entryX=1;entryY=0.5;entryDx=0;entryDy=0;dashed=1;" parent="1" edge="1">
          <mxGeometry relative="1" as="geometry">
            <mxPoint x="330" y="1064.5" as="sourcePoint" />
            <mxPoint x="190" y="1064.5" as="targetPoint" />
          </mxGeometry>
        </mxCell>
        <mxCell id="u1SRZ4_7880dq6Q7Chlh-76" style="edgeStyle=orthogonalEdgeStyle;rounded=0;orthogonalLoop=1;jettySize=auto;html=1;exitX=0.5;exitY=1;exitDx=0;exitDy=0;entryX=0.5;entryY=0;entryDx=0;entryDy=0;dashed=1;" parent="1" source="u1SRZ4_7880dq6Q7Chlh-60" target="u1SRZ4_7880dq6Q7Chlh-74" edge="1">
          <mxGeometry relative="1" as="geometry" />
        </mxCell>
        <mxCell id="u1SRZ4_7880dq6Q7Chlh-60" value="" style="rounded=0;whiteSpace=wrap;html=1;" parent="1" vertex="1">
          <mxGeometry x="330" y="940" width="20" height="210" as="geometry" />
        </mxCell>
        <mxCell id="u1SRZ4_7880dq6Q7Chlh-61" style="edgeStyle=orthogonalEdgeStyle;rounded=0;orthogonalLoop=1;jettySize=auto;html=1;exitX=1;exitY=0.25;exitDx=0;exitDy=0;entryX=0;entryY=0.25;entryDx=0;entryDy=0;startArrow=none;startFill=0;" parent="1" edge="1">
          <mxGeometry relative="1" as="geometry">
            <mxPoint x="190" y="950" as="sourcePoint" />
            <mxPoint x="330" y="950" as="targetPoint" />
          </mxGeometry>
        </mxCell>
        <mxCell id="u1SRZ4_7880dq6Q7Chlh-62" style="edgeStyle=orthogonalEdgeStyle;rounded=0;orthogonalLoop=1;jettySize=auto;html=1;exitX=1;exitY=0.25;exitDx=0;exitDy=0;entryX=1;entryY=0.5;entryDx=0;entryDy=0;" parent="1" source="u1SRZ4_7880dq6Q7Chlh-60" target="u1SRZ4_7880dq6Q7Chlh-60" edge="1">
          <mxGeometry relative="1" as="geometry" />
        </mxCell>
        <mxCell id="u1SRZ4_7880dq6Q7Chlh-63" value="&lt;div style=&quot;font-size: 8px;&quot;&gt;&lt;font style=&quot;font-size: 8px;&quot;&gt;Comprobar&lt;/font&gt;&lt;/div&gt;&lt;div style=&quot;font-size: 8px;&quot;&gt;&lt;font style=&quot;font-size: 8px;&quot;&gt;&amp;nbsp;validez ( )&lt;font style=&quot;font-size: 8px;&quot;&gt;&lt;br&gt;&lt;/font&gt;&lt;/font&gt;&lt;/div&gt;" style="text;html=1;align=center;verticalAlign=middle;resizable=0;points=[];autosize=1;strokeColor=none;fillColor=none;" parent="1" vertex="1">
          <mxGeometry x="370" y="1010" width="60" height="30" as="geometry" />
        </mxCell>
        <mxCell id="u1SRZ4_7880dq6Q7Chlh-64" value="&lt;div style=&quot;font-size: 8px;&quot;&gt;&lt;font style=&quot;font-size: 8px;&quot;&gt;Informe&lt;/font&gt;&lt;/div&gt;&lt;div style=&quot;font-size: 8px;&quot;&gt;&lt;font style=&quot;font-size: 8px;&quot;&gt;&amp;nbsp;de&lt;/font&gt;&lt;/div&gt;&lt;div style=&quot;font-size: 8px;&quot;&gt;&lt;font style=&quot;font-size: 8px;&quot;&gt;Error&lt;font style=&quot;font-size: 8px;&quot;&gt; ( )&lt;br&gt;&lt;/font&gt;&lt;/font&gt; &lt;/div&gt;" style="text;html=1;align=center;verticalAlign=middle;resizable=0;points=[];autosize=1;strokeColor=none;fillColor=none;" parent="1" vertex="1">
          <mxGeometry x="240" y="1024.5" width="50" height="40" as="geometry" />
        </mxCell>
        <mxCell id="u1SRZ4_7880dq6Q7Chlh-65" value="&lt;div&gt;Loop:&lt;/div&gt;&lt;div&gt;Datos&lt;/div&gt;&lt;div&gt;incorrectos&lt;br&gt;&lt;/div&gt;" style="shape=umlFrame;whiteSpace=wrap;html=1;pointerEvents=0;width=65;height=60;" parent="1" vertex="1">
          <mxGeometry x="100" y="920" width="330" height="160" as="geometry" />
        </mxCell>
        <mxCell id="u1SRZ4_7880dq6Q7Chlh-66" value="&lt;font style=&quot;font-size: 8px;&quot;&gt;Datos&lt;/font&gt;&lt;div style=&quot;font-size: 8px;&quot;&gt;&lt;font style=&quot;font-size: 8px;&quot;&gt;validos&lt;/font&gt;( )&lt;br&gt;&lt;/div&gt;" style="text;html=1;align=center;verticalAlign=middle;resizable=0;points=[];autosize=1;strokeColor=none;fillColor=none;" parent="1" vertex="1">
          <mxGeometry x="365" y="1105" width="60" height="40" as="geometry" />
        </mxCell>
        <mxCell id="u1SRZ4_7880dq6Q7Chlh-67" value="Datos correctos" style="shape=umlFrame;whiteSpace=wrap;html=1;pointerEvents=0;width=60;height=40;" parent="1" vertex="1">
          <mxGeometry x="100" y="1080" width="330" height="80" as="geometry" />
        </mxCell>
        <mxCell id="u1SRZ4_7880dq6Q7Chlh-77" style="edgeStyle=orthogonalEdgeStyle;rounded=0;orthogonalLoop=1;jettySize=auto;html=1;exitX=0.5;exitY=1;exitDx=0;exitDy=0;dashed=1;" parent="1" source="u1SRZ4_7880dq6Q7Chlh-68" target="u1SRZ4_7880dq6Q7Chlh-75" edge="1">
          <mxGeometry relative="1" as="geometry" />
        </mxCell>
        <mxCell id="u1SRZ4_7880dq6Q7Chlh-68" value="" style="rounded=0;whiteSpace=wrap;html=1;" parent="1" vertex="1">
          <mxGeometry x="170" y="940" width="20" height="130" as="geometry" />
        </mxCell>
        <mxCell id="u1SRZ4_7880dq6Q7Chlh-69" style="edgeStyle=orthogonalEdgeStyle;rounded=0;orthogonalLoop=1;jettySize=auto;html=1;exitX=1;exitY=0.25;exitDx=0;exitDy=0;entryX=0;entryY=0.25;entryDx=0;entryDy=0;startArrow=none;startFill=0;" parent="1" edge="1">
          <mxGeometry relative="1" as="geometry">
            <mxPoint x="350" y="1140" as="sourcePoint" />
            <mxPoint x="490" y="1140" as="targetPoint" />
          </mxGeometry>
        </mxCell>
        <mxCell id="u1SRZ4_7880dq6Q7Chlh-92" style="edgeStyle=orthogonalEdgeStyle;rounded=0;orthogonalLoop=1;jettySize=auto;html=1;exitX=0.5;exitY=1;exitDx=0;exitDy=0;dashed=1;" parent="1" source="u1SRZ4_7880dq6Q7Chlh-70" target="u1SRZ4_7880dq6Q7Chlh-91" edge="1">
          <mxGeometry relative="1" as="geometry" />
        </mxCell>
        <mxCell id="u1SRZ4_7880dq6Q7Chlh-70" value="" style="rounded=0;whiteSpace=wrap;html=1;" parent="1" vertex="1">
          <mxGeometry x="490" y="1120" width="20" height="60" as="geometry" />
        </mxCell>
        <mxCell id="u1SRZ4_7880dq6Q7Chlh-71" style="edgeStyle=orthogonalEdgeStyle;rounded=0;orthogonalLoop=1;jettySize=auto;html=1;exitX=0.5;exitY=1;exitDx=0;exitDy=0;dashed=1;" parent="1" target="u1SRZ4_7880dq6Q7Chlh-70" edge="1">
          <mxGeometry relative="1" as="geometry">
            <mxPoint x="500" y="900" as="sourcePoint" />
          </mxGeometry>
        </mxCell>
        <mxCell id="u1SRZ4_7880dq6Q7Chlh-78" style="edgeStyle=orthogonalEdgeStyle;rounded=0;orthogonalLoop=1;jettySize=auto;html=1;exitX=0;exitY=0.25;exitDx=0;exitDy=0;entryX=1;entryY=0.25;entryDx=0;entryDy=0;dashed=1;" parent="1" edge="1">
          <mxGeometry relative="1" as="geometry">
            <mxPoint x="330" y="1230" as="sourcePoint" />
            <mxPoint x="190" y="1230" as="targetPoint" />
          </mxGeometry>
        </mxCell>
        <mxCell id="u1SRZ4_7880dq6Q7Chlh-90" style="edgeStyle=orthogonalEdgeStyle;rounded=0;orthogonalLoop=1;jettySize=auto;html=1;exitX=0.5;exitY=1;exitDx=0;exitDy=0;dashed=1;" parent="1" source="u1SRZ4_7880dq6Q7Chlh-74" target="u1SRZ4_7880dq6Q7Chlh-88" edge="1">
          <mxGeometry relative="1" as="geometry" />
        </mxCell>
        <mxCell id="u1SRZ4_7880dq6Q7Chlh-74" value="" style="rounded=0;whiteSpace=wrap;html=1;" parent="1" vertex="1">
          <mxGeometry x="330" y="1200" width="20" height="160" as="geometry" />
        </mxCell>
        <mxCell id="u1SRZ4_7880dq6Q7Chlh-89" style="edgeStyle=orthogonalEdgeStyle;rounded=0;orthogonalLoop=1;jettySize=auto;html=1;exitX=0.5;exitY=1;exitDx=0;exitDy=0;dashed=1;" parent="1" source="u1SRZ4_7880dq6Q7Chlh-75" target="u1SRZ4_7880dq6Q7Chlh-14" edge="1">
          <mxGeometry relative="1" as="geometry" />
        </mxCell>
        <mxCell id="u1SRZ4_7880dq6Q7Chlh-75" value="" style="rounded=0;whiteSpace=wrap;html=1;" parent="1" vertex="1">
          <mxGeometry x="170" y="1220" width="20" height="140" as="geometry" />
        </mxCell>
        <mxCell id="u1SRZ4_7880dq6Q7Chlh-79" value="&lt;div style=&quot;font-size: 8px;&quot;&gt;&lt;font style=&quot;font-size: 8px;&quot;&gt;Solicitar confirmación &lt;br&gt;&lt;/font&gt;&lt;/div&gt;&lt;div style=&quot;font-size: 8px;&quot;&gt;&lt;font style=&quot;font-size: 8px;&quot;&gt;usuario( )&lt;br&gt;&lt;/font&gt;&lt;/div&gt;&lt;div style=&quot;font-size: 8px;&quot;&gt;&lt;font style=&quot;font-size: 8px;&quot;&gt;&lt;br&gt;&lt;/font&gt;&lt;/div&gt;" style="text;html=1;align=center;verticalAlign=middle;resizable=0;points=[];autosize=1;strokeColor=none;fillColor=none;" parent="1" vertex="1">
          <mxGeometry x="210" y="1200" width="100" height="40" as="geometry" />
        </mxCell>
        <mxCell id="u1SRZ4_7880dq6Q7Chlh-81" style="edgeStyle=orthogonalEdgeStyle;rounded=0;orthogonalLoop=1;jettySize=auto;html=1;exitX=1;exitY=0.25;exitDx=0;exitDy=0;entryX=0;entryY=0.25;entryDx=0;entryDy=0;startArrow=none;startFill=0;" parent="1" edge="1">
          <mxGeometry relative="1" as="geometry">
            <mxPoint x="190" y="1285" as="sourcePoint" />
            <mxPoint x="330" y="1285" as="targetPoint" />
          </mxGeometry>
        </mxCell>
        <mxCell id="u1SRZ4_7880dq6Q7Chlh-82" value="&lt;div style=&quot;font-size: 8px;&quot;&gt;&lt;font style=&quot;font-size: 8px;&quot;&gt;&lt;br&gt;&lt;/font&gt;&lt;/div&gt;&lt;div style=&quot;font-size: 8px;&quot;&gt;&lt;font style=&quot;font-size: 8px;&quot;&gt;Confirmación &lt;br&gt;&lt;/font&gt;&lt;/div&gt;&lt;div style=&quot;font-size: 8px;&quot;&gt;&lt;font style=&quot;font-size: 8px;&quot;&gt;usuario( )&lt;br&gt;&lt;/font&gt;&lt;/div&gt;&lt;div style=&quot;font-size: 8px;&quot;&gt;&lt;font style=&quot;font-size: 8px;&quot;&gt;&lt;br&gt;&lt;/font&gt;&lt;/div&gt;" style="text;html=1;align=center;verticalAlign=middle;resizable=0;points=[];autosize=1;strokeColor=none;fillColor=none;" parent="1" vertex="1">
          <mxGeometry x="225" y="1250" width="70" height="50" as="geometry" />
        </mxCell>
        <mxCell id="u1SRZ4_7880dq6Q7Chlh-86" style="edgeStyle=orthogonalEdgeStyle;rounded=0;orthogonalLoop=1;jettySize=auto;html=1;exitX=0;exitY=0.75;exitDx=0;exitDy=0;entryX=1;entryY=0.5;entryDx=0;entryDy=0;dashed=1;" parent="1" edge="1">
          <mxGeometry relative="1" as="geometry">
            <mxPoint x="330" y="1350" as="sourcePoint" />
            <mxPoint x="190" y="1350" as="targetPoint" />
          </mxGeometry>
        </mxCell>
        <mxCell id="u1SRZ4_7880dq6Q7Chlh-87" value="&lt;div style=&quot;font-size: 8px;&quot;&gt;&lt;font style=&quot;font-size: 8px;&quot;&gt;Mensaje registro &lt;br&gt;&lt;/font&gt;&lt;/div&gt;&lt;div style=&quot;font-size: 8px;&quot;&gt;&lt;font style=&quot;font-size: 8px;&quot;&gt;correcto&lt;/font&gt;( )&lt;br&gt;&lt;/div&gt;" style="text;html=1;align=center;verticalAlign=middle;resizable=0;points=[];autosize=1;strokeColor=none;fillColor=none;" parent="1" vertex="1">
          <mxGeometry x="225" y="1320" width="80" height="30" as="geometry" />
        </mxCell>
        <mxCell id="u1SRZ4_7880dq6Q7Chlh-88" value="" style="shape=umlDestroy;whiteSpace=wrap;html=1;strokeWidth=3;targetShapes=umlLifeline;" parent="1" vertex="1">
          <mxGeometry x="330" y="1400" width="20" height="20" as="geometry" />
        </mxCell>
        <mxCell id="u1SRZ4_7880dq6Q7Chlh-91" value="" style="shape=umlDestroy;whiteSpace=wrap;html=1;strokeWidth=3;targetShapes=umlLifeline;" parent="1" vertex="1">
          <mxGeometry x="490" y="1400" width="20" height="20" as="geometry" />
        </mxCell>
      </root>
    </mxGraphModel>
  </diagram>
</mxfile>
